<svg width="45" height="46" viewBox="0 0 45 46" fill="none" xmlns="http://www.w3.org/2000/svg">
<path d="M22.5 22.0625C21.2568 22.0625 20.0645 21.5686 19.1854 20.6896C18.3064 19.8105 17.8125 18.6182 17.8125 17.375C17.8125 16.1318 18.3064 14.9395 19.1854 14.0604C20.0645 13.1814 21.2568 12.6875 22.5 12.6875C23.7432 12.6875 24.9355 13.1814 25.8146 14.0604C26.6936 14.9395 27.1875 16.1318 27.1875 17.375C27.1875 17.9906 27.0663 18.6001 26.8307 19.1688C26.5951 19.7375 26.2498 20.2543 25.8146 20.6896C25.3793 21.1248 24.8625 21.4701 24.2938 21.7057C23.7251 21.9413 23.1156 22.0625 22.5 22.0625ZM22.5 4.25C19.019 4.25 15.6806 5.63281 13.2192 8.09422C10.7578 10.5556 9.375 13.894 9.375 17.375C9.375 27.2188 22.5 41.75 22.5 41.75C22.5 41.75 35.625 27.2188 35.625 17.375C35.625 13.894 34.2422 10.5556 31.7808 8.09422C29.3194 5.63281 25.981 4.25 22.5 4.25Z" fill="white"/>
</svg>
