<svg width="45" height="45" viewBox="0 0 45 45" fill="none" xmlns="http://www.w3.org/2000/svg">
<path d="M4.5 13.5C4.5 12.3065 4.97411 11.1619 5.81802 10.318C6.66193 9.47411 7.80653 9 9 9H36C37.1935 9 38.3381 9.47411 39.182 10.318C40.0259 11.1619 40.5 12.3065 40.5 13.5V29.25C40.5 30.4435 40.0259 31.5881 39.182 32.432C38.3381 33.2759 37.1935 33.75 36 33.75H9C7.80653 33.75 6.66193 33.2759 5.81802 32.432C4.97411 31.5881 4.5 30.4435 4.5 29.25V13.5ZM12.375 36C12.0766 36 11.7905 36.1185 11.5795 36.3295C11.3685 36.5405 11.25 36.8266 11.25 37.125C11.25 37.4234 11.3685 37.7095 11.5795 37.9205C11.7905 38.1315 12.0766 38.25 12.375 38.25H32.625C32.9234 38.25 33.2095 38.1315 33.4205 37.9205C33.6315 37.7095 33.75 37.4234 33.75 37.125C33.75 36.8266 33.6315 36.5405 33.4205 36.3295C33.2095 36.1185 32.9234 36 32.625 36H12.375Z" fill="white"/>
</svg>
